<svg width="176" height="47" viewBox="0 0 176 47" fill="none" xmlns="http://www.w3.org/2000/svg">
<path d="M10.0519 22.3579C10.0519 23.2173 10.6324 23.9148 11.7926 24.4515C12.9527 24.9891 14.3652 25.4608 16.0309 25.8685C17.6939 26.2772 19.3587 26.7928 21.0235 27.4136C22.6874 28.0371 24.0998 29.0793 25.2609 30.5384C26.4211 31.9993 27.0016 33.8241 27.0016 36.0146C27.0016 39.3213 25.7427 41.8656 23.224 43.6484C20.7053 45.4293 17.5632 46.3206 13.7966 46.3206C7.05141 46.3206 2.45286 43.7663 0 38.6558L2.49492 37.279C4.76402 36.0283 7.5012 36.2944 9.66152 37.7178C10.7385 38.4282 12.1171 38.7829 13.7966 38.7829C16.819 38.7829 18.3302 37.8604 18.3302 36.0137C18.3302 35.1543 17.7487 34.4568 16.5886 33.9192C15.4284 33.3835 14.015 32.8998 12.3512 32.4702C10.6864 32.0414 9.02248 31.5038 7.35859 30.8602C5.69287 30.2157 4.2804 29.1954 3.12116 27.8003C1.9601 26.4052 1.37956 24.6545 1.37956 22.549C1.37956 19.3721 2.57263 16.8708 4.96058 15.045C7.34762 13.2203 10.3152 12.3079 13.8624 12.3079C16.5337 12.3079 18.9637 12.8985 21.1551 14.0787C23.3447 15.2608 25.0735 16.9457 26.3452 19.1353L22.5978 21.1402C20.9604 22.016 18.8979 21.9739 17.4388 20.8339C16.4853 20.0888 15.2931 19.7167 13.8624 19.7167C12.7671 19.7167 11.8584 19.9526 11.1362 20.4253C10.413 20.8979 10.0519 21.5415 10.0519 22.3579Z" fill="#27C44A"/>
<path d="M60.8361 13.2092H65.4346V45.4191H56.9598V41.6187C54.4191 44.7545 50.85 46.3214 46.2505 46.3214C41.8714 46.3214 38.1149 44.6795 34.9837 41.3938C31.8524 38.108 30.2864 34.0827 30.2864 29.316C30.2864 24.5483 31.8524 20.522 34.9837 17.2363C38.1149 13.9515 41.8714 12.3096 46.2505 12.3096C50.85 12.3096 54.4191 13.8766 56.9598 17.0114C56.9598 14.9124 58.695 13.2092 60.8361 13.2092ZM41.3238 35.8536C43.0316 37.5504 45.2001 38.3979 47.8276 38.3979C50.456 38.3979 52.6337 37.5504 54.3652 35.8536C56.094 34.1577 56.9598 31.9791 56.9598 29.316C56.9598 26.6537 56.094 24.4742 54.3652 22.7765C52.6337 21.0806 50.456 20.2322 47.8276 20.2322C45.2001 20.2322 43.0316 21.0806 41.3238 22.7765C39.616 24.4742 38.7621 26.6537 38.7621 29.316C38.7621 31.9791 39.616 34.1577 41.3238 35.8536Z" fill="#27C44A"/>
<path d="M92.2387 12.3096C96.6617 12.3096 100.439 13.9516 103.571 17.2364C106.704 20.5221 108.27 24.5483 108.27 29.316C108.27 34.0828 106.704 38.1081 103.571 41.3938C100.439 44.6796 96.6617 46.3215 92.2387 46.3215C87.6402 46.3215 84.0921 44.7545 81.5963 41.6187C81.5963 43.7187 79.8601 45.4201 77.719 45.4201H73.1205V0.326904C77.8013 0.326904 81.5963 4.0478 81.5963 8.6372V17.0115C84.0921 13.8757 87.6393 12.3096 92.2387 12.3096ZM84.157 35.8536C85.8648 37.5504 88.0333 38.3979 90.6608 38.3979C93.2892 38.3979 95.4669 37.5504 97.1984 35.8536C98.9281 34.1578 99.793 31.9792 99.793 29.316C99.793 26.6538 98.9281 24.4743 97.1984 22.7766C95.4669 21.0807 93.2892 20.2323 90.6608 20.2323C88.0333 20.2323 85.8648 21.0807 84.157 22.7766C82.4492 24.4743 81.5953 26.6538 81.5953 29.316C81.5963 31.9792 82.4501 34.1578 84.157 35.8536Z" fill="#27C44A"/>
<path d="M113.171 45.4201V21.5196C113.171 16.9302 116.965 13.2102 121.647 13.2102V45.4192L113.171 45.4201Z" fill="#27C44A"/>
<path d="M135.787 32.7288C136.924 36.766 140.013 38.7856 145.05 38.7856C147.209 38.7856 149.02 38.3083 150.479 37.3539C151.887 36.4342 153.672 36.2797 155.137 37.1089L159.239 39.4301C155.998 44.0259 151.224 46.3224 144.917 46.3224C139.487 46.3224 135.129 44.7116 131.844 41.4917C128.559 38.2708 126.917 34.2126 126.917 29.3178C126.917 24.4642 128.536 20.417 131.777 17.1742C135.018 13.9315 139.18 12.3105 144.26 12.3105C149.078 12.3105 153.052 13.9434 156.184 17.2062C159.314 20.4709 160.881 24.5081 160.881 29.3178C160.881 30.3911 160.772 31.5294 160.553 32.7306H135.787V32.7288ZM135.655 26.2872H152.408C151.926 24.0976 150.93 22.4657 149.418 21.3924C147.908 20.3191 146.188 19.7816 144.261 19.7816C141.983 19.7816 140.099 20.3502 138.611 21.4884C137.123 22.6276 136.137 24.2265 135.655 26.2872Z" fill="#27C44A"/>
<path d="M166.796 45.42V8.31079C166.796 3.72138 170.589 0.000488281 175.27 0.000488281V45.421H166.796V45.42Z" fill="#27C44A"/>
<path d="M122.079 0.0608497C122.079 0.0608497 116.839 -0.560821 114.054 2.16996C111.269 4.89984 111.902 10.0396 111.902 10.0396C111.902 10.0396 117.144 10.6613 119.928 7.93049C122.713 5.20062 122.079 0.0608497 122.079 0.0608497Z" fill="#27C44A"/>
</svg>
