<svg width="49" height="40" viewBox="0 0 49 40" fill="none" xmlns="http://www.w3.org/2000/svg">
<path d="M42.5642 6.19872C43.4092 7.04372 43.4092 8.38706 42.5642 9.23206L17.9942 33.8021C17.7959 34.0028 17.5597 34.1621 17.2994 34.2709C17.039 34.3797 16.7597 34.4357 16.4775 34.4357C16.1953 34.4357 15.916 34.3797 15.6557 34.2709C15.3953 34.1621 15.1591 34.0028 14.9608 33.8021L5.86083 24.7021C5.66011 24.5038 5.50075 24.2676 5.39199 24.0072C5.28322 23.7469 5.22721 23.4675 5.22721 23.1854C5.22721 22.9032 5.28322 22.6239 5.39199 22.3635C5.50075 22.1032 5.66011 21.867 5.86083 21.6687C6.05913 21.468 6.2953 21.3086 6.55565 21.1999C6.816 21.0911 7.09535 21.0351 7.3775 21.0351C7.65965 21.0351 7.939 21.0911 8.19935 21.1999C8.4597 21.3086 8.69587 21.468 8.89417 21.6687L16.4775 29.2521L39.5308 6.19872C39.7291 5.998 39.9653 5.83864 40.2256 5.72988C40.486 5.62111 40.7653 5.5651 41.0475 5.5651C41.3297 5.5651 41.609 5.62111 41.8694 5.72988C42.1297 5.83864 42.3659 5.998 42.5642 6.19872ZM37.9925 1.60539L16.4775 23.1204L10.4325 17.0754C8.7425 15.3854 5.99083 15.3854 4.30083 17.0754L1.2675 20.1087C-0.4225 21.7987 -0.4225 24.5504 1.2675 26.2404L13.4008 38.3737C15.0908 40.0637 17.8425 40.0637 19.5325 38.3737L47.1575 10.7704C48.8475 9.08039 48.8475 6.32872 47.1575 4.63872L44.1242 1.60539C42.4125 -0.0846093 39.6825 -0.0846093 37.9925 1.60539Z" fill="#27C44A"/>
</svg>
